<?xml version="1.0" standalone="no"?>
<!DOCTYPE svg PUBLIC "-//W3C//DTD SVG 20010904//EN"
 "http://www.w3.org/TR/2001/REC-SVG-20010904/DTD/svg10.dtd">
<svg version="1.0" xmlns="http://www.w3.org/2000/svg"
 width="512.000000pt" height="512.000000pt" viewBox="0 0 512.000000 512.000000"
 preserveAspectRatio="xMidYMid meet">
<metadata>
Created by potrace 1.11, written by Peter Selinger 2001-2013
</metadata>
<g transform="translate(0.000000,512.000000) scale(0.100000,-0.100000)"
fill="#000000" stroke="none">
<path d="M2130 4920 c0 -5 -18 -11 -40 -15 -22 -4 -40 -10 -40 -14 0 -4 -8 -7
-17 -8 -10 -1 -25 -3 -33 -6 -8 -2 -28 -7 -45 -12 -45 -12 -126 -56 -132 -71
-3 -8 -9 -11 -14 -8 -5 3 -9 -2 -9 -10 0 -9 -4 -16 -8 -16 -10 0 -42 -65 -42
-84 0 -7 -12 -19 -27 -27 -16 -8 -30 -16 -33 -19 -10 -11 -110 -80 -116 -80
-3 0 3 12 14 28 25 37 57 105 54 116 -2 5 1 12 6 15 6 3 11 20 13 36 2 17 7
36 13 43 5 7 6 15 3 18 -3 3 1 21 9 40 13 31 13 33 -3 27 -10 -3 -30 -15 -45
-25 -16 -11 -28 -16 -28 -11 0 4 -5 0 -11 -10 -6 -9 -14 -15 -20 -12 -5 4 -9
2 -9 -4 0 -5 -15 -18 -32 -30 -29 -18 -59 -46 -141 -131 -13 -14 -22 -31 -19
-38 2 -6 -3 -15 -12 -18 -9 -3 -14 -9 -11 -13 2 -4 -2 -19 -9 -32 -15 -29 -19
-139 -5 -139 18 0 3 -24 -41 -64 -25 -22 -49 -47 -53 -54 -5 -7 -13 -9 -19 -6
-6 4 -9 3 -6 -2 3 -5 -12 -27 -34 -49 l-39 -40 20 36 c11 20 22 51 24 67 3 17
8 35 11 41 14 22 20 139 12 231 -4 45 -2 66 7 72 9 5 7 8 -4 8 -9 0 -28 -11
-43 -25 -15 -14 -24 -25 -21 -25 3 0 -4 -11 -17 -24 -24 -25 -43 -49 -68 -87
-8 -12 -23 -31 -32 -41 -10 -10 -16 -18 -12 -18 3 0 -9 -25 -25 -56 -17 -30
-26 -52 -21 -49 15 9 12 -2 -6 -19 -9 -9 -11 -16 -4 -16 6 0 8 -5 3 -12 -4 -7
-8 -32 -8 -55 0 -23 -4 -45 -8 -49 -4 -4 -3 -12 2 -18 4 -6 11 -28 14 -49 3
-22 11 -45 18 -53 10 -13 14 -12 30 2 11 10 22 15 25 11 3 -3 -4 -10 -15 -17
-12 -6 -19 -15 -16 -21 4 -5 2 -9 -3 -9 -9 0 -92 -126 -113 -172 -6 -15 -16
-25 -20 -22 -14 8 -10 26 4 18 9 -5 9 -4 0 6 -8 9 -9 19 -3 31 7 11 7 20 0 24
-7 4 -7 13 0 26 6 10 7 19 3 19 -4 0 -8 15 -9 33 -1 51 -8 102 -15 107 -4 3
-9 16 -10 30 -2 14 -7 27 -11 30 -4 3 -8 17 -10 30 -2 14 -7 30 -10 36 -4 6
-9 23 -12 39 -3 15 -10 33 -16 39 -8 8 -9 6 -4 -8 5 -12 4 -17 -3 -13 -6 4
-10 -1 -10 -11 0 -33 -3 -43 -11 -38 -5 3 -8 -5 -7 -17 1 -12 -2 -27 -6 -33
-5 -6 -10 -19 -12 -30 -2 -10 -9 -31 -15 -45 -5 -14 -12 -40 -15 -57 -3 -17
-8 -35 -11 -41 -8 -12 -18 -82 -19 -133 -1 -20 -5 -34 -10 -31 -5 3 -4 -4 2
-14 6 -11 8 -23 5 -25 -7 -8 37 -138 47 -138 5 0 9 -7 9 -15 0 -8 9 -24 19
-34 18 -18 19 -67 2 -57 -4 3 -7 -3 -8 -12 -1 -25 -11 -60 -20 -75 -4 -6 -8
-16 -9 -22 -5 -48 -29 -103 -32 -72 0 7 -3 23 -7 37 -11 45 -8 37 -49 134 -9
21 -35 68 -59 105 -24 36 -52 79 -62 96 -11 17 -20 24 -23 17 -2 -7 -9 -9 -15
-5 -9 5 -9 3 -1 -8 5 -8 8 -34 7 -59 -2 -25 -4 -54 -4 -65 0 -11 -5 -23 -12
-27 -7 -5 -8 -8 -1 -8 9 0 12 -54 4 -70 -1 -3 -1 -9 0 -15 5 -27 2 -124 -5
-135 -5 -9 -4 -11 3 -6 8 5 12 -4 13 -28 1 -20 2 -39 4 -43 4 -15 17 -48 30
-78 13 -32 75 -113 75 -100 0 5 8 1 18 -8 10 -10 21 -15 24 -12 3 3 8 -3 11
-15 3 -11 0 -20 -5 -20 -7 0 -6 -5 1 -13 6 -8 8 -17 4 -21 -4 -4 -8 -26 -9
-49 -1 -23 -3 -42 -4 -42 -1 0 -2 -19 -3 -43 -1 -23 1 -42 5 -42 4 0 5 -7 2
-15 -5 -12 -10 -13 -20 -4 -8 6 -14 18 -14 25 0 8 -5 14 -11 14 -5 0 -8 4 -5
9 4 5 3 11 -1 13 -14 6 -88 122 -85 133 2 5 1 7 -3 3 -4 -4 -19 7 -34 25 -14
18 -30 34 -35 36 -4 2 -16 12 -24 22 -9 11 -20 19 -25 19 -4 0 -20 11 -35 25
-24 22 -27 23 -33 7 -4 -9 -4 -21 -1 -27 4 -5 8 -19 10 -30 1 -11 4 -27 5 -35
1 -8 7 -21 11 -29 7 -10 6 -12 -4 -6 -9 6 -11 4 -6 -4 8 -13 36 -138 34 -149
-1 -4 6 -25 16 -47 10 -22 19 -47 21 -55 2 -8 4 -17 5 -20 1 -3 2 -8 1 -12 0
-5 2 -8 7 -8 4 0 14 -15 21 -32 8 -18 23 -40 33 -49 10 -9 18 -19 18 -22 0
-11 45 -52 73 -66 15 -8 27 -18 27 -23 0 -5 4 -6 10 -3 5 3 10 1 10 -4 0 -6 9
-11 21 -11 11 0 17 -4 14 -10 -3 -5 -1 -10 5 -10 7 0 10 -7 6 -15 -3 -8 -2
-15 2 -15 4 0 8 -18 9 -40 2 -23 7 -50 13 -60 8 -15 8 -20 -2 -20 -9 0 -9 -3
-2 -8 6 -4 13 -20 17 -37 3 -16 9 -39 13 -50 4 -11 -10 0 -32 24 -21 24 -60
58 -86 76 -26 17 -45 35 -40 39 4 4 3 6 -3 5 -13 -4 -75 29 -75 40 0 5 -11 12
-25 15 -14 4 -25 10 -25 15 0 5 -13 14 -30 21 -16 7 -27 16 -24 21 4 8 -4 10
-31 9 -9 -1 -33 25 -30 30 2 3 -5 6 -16 6 -11 0 -18 -3 -16 -6 2 -3 9 -20 16
-37 7 -18 18 -33 24 -33 6 0 8 -3 4 -6 -3 -4 0 -19 8 -34 8 -15 12 -30 10 -34
-3 -3 -2 -4 2 -1 9 7 43 -67 36 -80 -4 -5 -2 -7 2 -2 5 4 20 -17 34 -45 57
-116 130 -208 193 -246 16 -9 28 -20 28 -25 0 -4 5 -5 10 -2 6 3 10 2 10 -3 0
-8 14 -15 43 -20 4 -1 20 -8 36 -16 16 -9 31 -12 35 -9 3 4 6 1 6 -6 0 -8 7
-10 19 -6 15 4 23 -4 41 -42 12 -26 22 -50 20 -52 -1 -2 2 -7 7 -10 4 -3 17
-24 29 -46 12 -22 31 -57 44 -79 l24 -39 -52 37 c-29 20 -56 36 -61 36 -5 0
-11 5 -13 11 -3 9 -22 15 -51 18 -5 1 -5 6 -2 11 4 6 3 10 -2 9 -4 -1 -11 0
-15 1 -5 1 -11 3 -15 5 -21 5 -51 18 -77 32 -23 13 -27 13 -21 2 8 -12 6 -12
-8 0 -9 7 -17 10 -17 6 0 -4 -6 -3 -12 2 -7 6 -21 9 -30 8 -10 -2 -20 1 -24 6
-3 5 -10 7 -15 4 -5 -4 -9 -1 -9 6 0 7 -3 10 -6 6 -4 -3 -23 0 -42 9 -20 8
-39 11 -44 6 -7 -7 7 -28 79 -110 18 -20 33 -43 33 -50 0 -7 5 -10 10 -7 6 3
10 -1 10 -9 0 -9 4 -16 9 -16 5 0 13 -9 16 -20 3 -11 10 -20 14 -20 5 0 36
-26 69 -59 34 -32 63 -56 66 -53 3 2 8 -3 12 -12 3 -9 11 -16 17 -16 6 0 18
-7 27 -15 10 -9 28 -18 40 -20 13 -3 27 -10 31 -17 4 -7 11 -9 14 -6 4 4 17 3
30 -2 22 -9 100 -23 120 -22 6 0 25 2 44 5 33 5 41 -1 141 -102 58 -58 117
-114 130 -123 35 -26 18 -22 -47 11 -53 27 -81 37 -138 46 -11 2 -20 4 -20 5
0 1 -106 12 -137 13 -10 1 -18 4 -18 7 0 3 -17 4 -37 4 -21 -1 -42 1 -47 4 -5
3 -50 6 -100 7 l-90 3 29 -26 c17 -14 29 -29 28 -34 -2 -4 1 -7 6 -5 14 4 90
-47 91 -60 0 -7 8 -13 18 -13 11 0 27 -9 37 -20 10 -11 24 -20 32 -20 7 0 13
-4 13 -8 0 -5 16 -14 35 -22 19 -8 35 -18 35 -22 0 -5 4 -7 8 -4 5 3 19 -1 33
-7 67 -35 174 -59 253 -58 103 2 116 3 116 11 0 4 7 7 15 8 8 1 22 3 30 4 8 1
15 5 15 9 0 3 9 9 19 12 22 5 75 -26 64 -37 -5 -4 -3 -6 2 -4 14 4 75 -23 75
-33 0 -5 9 -9 20 -9 11 0 20 -5 20 -11 0 -5 4 -7 10 -4 5 3 10 1 10 -5 0 -6 4
-9 9 -5 5 3 15 -1 23 -8 13 -14 21 -17 38 -17 6 0 10 -6 10 -13 0 -11 -36 -16
-47 -7 -7 5 -153 4 -153 -1 0 -3 -18 -5 -40 -5 -22 1 -40 -1 -40 -5 0 -3 -15
-6 -33 -7 -19 -1 -45 -5 -58 -10 -13 -5 -32 -8 -41 -7 -10 2 -18 0 -18 -4 0
-4 -10 -7 -22 -8 -13 0 -41 -4 -63 -8 -22 -5 -48 -8 -57 -9 -10 0 -18 -3 -18
-7 0 -4 -10 -5 -21 -2 -15 4 -20 2 -17 -8 2 -7 20 -17 39 -22 19 -5 37 -14 41
-20 6 -9 8 -8 8 2 0 9 4 10 13 4 6 -6 35 -16 62 -23 28 -7 55 -16 60 -19 10
-6 12 -6 60 -16 40 -9 77 -15 95 -17 8 0 18 -6 22 -12 5 -7 8 -7 8 -1 0 11 61
11 79 1 5 -4 12 -3 15 2 5 9 47 9 63 -1 7 -4 14 -3 18 3 3 5 15 10 25 10 29 0
150 42 150 51 0 5 6 9 13 9 7 0 26 13 42 30 25 26 45 31 75 20 3 -2 9 -2 13
-1 4 1 10 -6 14 -15 3 -9 8 -11 12 -6 4 7 26 5 61 -5 30 -8 67 -16 82 -17 26
-1 24 -14 -3 -20 -62 -14 -80 -20 -85 -27 -3 -5 -10 -7 -15 -4 -5 4 -9 2 -9
-3 0 -6 -7 -13 -16 -16 -9 -3 -12 -2 -9 4 4 6 -9 0 -27 -12 -19 -13 -58 -34
-88 -48 -30 -14 -58 -29 -62 -35 -4 -5 -8 -6 -8 -1 0 5 -6 3 -13 -3 -8 -6 -17
-8 -20 -4 -4 3 -7 2 -7 -3 0 -6 -32 -25 -70 -44 -71 -34 -83 -50 -41 -57 15
-2 20 1 15 9 -5 7 -3 8 7 2 20 -12 51 -16 44 -5 -6 10 27 7 44 -4 5 -3 13 -1
16 5 5 8 12 7 23 -2 9 -7 13 -8 9 -2 -4 8 4 12 26 11 17 0 41 4 51 8 15 6 17
5 11 -5 -6 -10 -4 -11 6 -4 8 4 21 10 29 11 8 1 38 7 65 13 28 6 61 12 75 13
14 1 31 8 38 14 7 7 21 13 31 13 10 0 21 3 25 8 4 4 11 7 14 7 18 2 56 18 71
31 9 8 19 14 24 14 4 0 30 24 58 54 l50 55 70 -1 c68 -1 72 -2 114 -42 81 -77
107 -93 209 -127 55 -18 107 -38 115 -44 12 -8 13 -7 6 5 -7 12 -6 13 6 3 8
-7 39 -14 67 -15 29 -2 52 -5 52 -8 0 -3 19 -5 42 -4 24 1 47 -1 52 -4 19 -10
95 -9 89 2 -3 6 0 5 8 -2 7 -6 33 -12 58 -12 34 0 42 3 31 10 -8 5 -10 10 -5
10 8 0 -107 61 -125 66 -30 8 -69 27 -66 33 3 4 -5 8 -17 8 -12 1 -23 7 -25
13 -2 5 -8 8 -13 4 -5 -3 -9 -1 -9 5 0 10 -120 68 -132 63 -5 -1 -8 3 -8 10 0
6 -3 9 -6 6 -3 -4 -17 0 -31 7 -15 8 -30 12 -35 9 -4 -3 -8 -1 -8 5 0 5 -8 8
-18 6 -10 -1 -26 3 -36 10 -18 14 -18 14 0 14 35 1 69 7 82 14 6 5 12 6 12 3
0 -2 15 0 33 5 121 38 128 38 139 14 6 -13 18 -26 27 -29 9 -3 35 -16 58 -30
23 -14 50 -26 60 -28 10 -2 20 -6 23 -10 3 -3 30 -9 60 -13 68 -7 66 -7 118
-3 24 2 46 0 49 -5 2 -4 11 -3 18 3 10 8 15 8 20 -1 5 -7 10 -8 14 -1 5 8 51
20 99 24 6 1 12 5 12 10 0 5 4 7 9 4 5 -3 34 3 64 13 30 11 58 17 61 14 3 -4
6 -2 6 4 0 6 17 14 37 18 70 13 96 45 37 45 -13 0 -24 4 -24 8 0 4 -12 7 -27
6 -16 0 -34 6 -41 15 -8 9 -11 10 -7 3 6 -13 -14 -12 -47 2 -9 4 -21 5 -26 2
-5 -3 -21 1 -36 9 -14 8 -24 10 -20 4 6 -10 -41 -2 -61 10 -5 3 -29 6 -52 6
-24 -1 -43 2 -43 5 0 3 -40 5 -90 5 -49 0 -90 -3 -90 -7 0 -4 -8 -7 -17 -6
-10 0 -28 -3 -40 -5 -13 -3 -25 -1 -29 4 -3 5 -2 8 3 7 4 -1 28 6 53 16 25 11
51 20 59 22 8 1 17 6 20 11 3 4 20 15 36 23 17 8 54 29 83 47 29 18 56 33 60
33 4 0 19 11 34 25 l27 25 -2 -26 c-2 -29 18 -44 83 -61 21 -5 159 -5 190 0
14 3 45 12 69 20 25 9 48 14 53 11 4 -3 8 0 8 6 0 7 6 10 14 7 8 -3 17 1 20 9
3 9 10 13 15 9 5 -3 13 0 17 6 3 6 22 17 40 25 19 8 34 19 34 26 0 6 3 9 6 5
3 -3 28 10 55 29 27 19 53 34 59 34 5 0 10 5 10 12 0 6 3 9 6 6 3 -4 14 1 23
10 37 35 59 50 65 45 3 -4 6 1 6 10 0 9 -3 17 -7 18 -39 4 -73 3 -73 -2 0 -8
-45 -3 -59 6 -6 3 -11 2 -11 -3 0 -5 -18 -8 -41 -8 -22 1 -42 -2 -45 -5 -5 -9
-24 -6 -43 5 -9 6 -12 5 -7 -2 4 -8 -5 -10 -29 -8 -19 1 -35 -1 -35 -5 0 -4
-12 -8 -27 -8 -48 -2 -63 -4 -63 -11 0 -3 -8 -6 -17 -7 -44 -3 -63 -8 -63 -15
0 -4 -8 -8 -18 -8 -10 0 -22 -3 -26 -8 -4 -4 -11 -7 -14 -7 -9 -1 -73 -34 -92
-49 -9 -6 4 7 30 29 25 22 57 52 73 67 15 14 27 24 27 21 0 -3 13 10 29 30 15
20 31 34 35 30 3 -3 6 -1 6 4 0 6 18 31 40 54 22 24 40 47 40 52 0 5 7 1 16
-8 12 -12 33 -15 85 -13 38 1 69 5 69 9 0 4 8 8 18 8 36 1 52 5 52 11 0 6 7 8
50 12 10 1 17 4 15 6 -5 5 62 52 75 52 4 0 10 3 12 8 2 4 24 24 50 44 25 21
59 52 75 69 15 17 35 40 45 49 9 10 15 20 12 22 -2 2 10 19 26 36 16 18 26 32
23 32 -4 0 14 20 40 44 34 33 42 46 31 50 -9 3 -23 2 -32 -3 -9 -4 -48 -16
-87 -26 -38 -9 -77 -20 -85 -23 -8 -3 -20 -6 -25 -7 -26 -6 -121 -50 -127 -59
-4 -6 -8 -7 -8 -2 0 5 -9 1 -19 -8 -11 -10 -25 -15 -32 -10 -7 4 -10 3 -5 -4
3 -6 -2 -13 -11 -16 -10 -3 -34 -20 -53 -36 -63 -56 -74 -55 -36 2 20 29 36
58 36 65 0 6 3 13 8 15 9 4 62 111 62 126 0 7 4 12 10 12 5 0 9 6 7 13 -1 7 9
13 23 13 14 1 27 2 30 4 3 1 13 3 22 5 24 4 110 46 130 64 10 8 18 11 18 8 0
-13 101 88 121 120 11 18 26 30 31 27 7 -4 8 -2 4 4 -9 15 54 133 67 125 6 -3
7 -1 3 5 -4 7 13 52 38 101 24 49 41 92 38 95 -3 3 0 6 6 6 7 0 12 7 12 15 0
25 -13 20 -137 -61 -46 -30 -86 -54 -91 -54 -4 0 -19 -11 -34 -25 -15 -14 -31
-25 -35 -25 -4 0 -21 -14 -36 -30 -16 -17 -34 -27 -39 -23 -6 3 -8 2 -5 -3 3
-6 -9 -26 -28 -46 -18 -20 -30 -40 -26 -44 3 -4 0 -4 -7 0 -9 6 -10 11 -2 21
6 7 12 27 13 44 1 17 5 31 9 31 5 0 7 3 6 8 -1 4 2 27 6 52 5 25 10 56 12 70
10 61 16 80 24 75 9 -6 87 32 96 46 3 5 10 6 16 3 6 -4 8 -3 5 3 -4 5 5 16 18
23 14 7 25 17 25 21 0 5 10 19 23 31 28 30 79 127 71 139 -3 5 0 9 6 9 6 0 8
5 5 10 -3 6 -2 10 4 10 5 0 8 9 6 20 -2 11 2 23 8 27 7 5 13 22 13 38 2 28 11
80 14 80 1 0 3 9 4 20 12 90 19 124 24 121 4 -2 7 9 7 25 1 16 -4 29 -11 29
-12 0 -154 -138 -154 -151 0 -4 -9 -11 -21 -14 -11 -4 -18 -9 -15 -12 3 -3 -6
-16 -19 -29 -14 -13 -25 -27 -25 -31 0 -5 -11 -20 -25 -35 -14 -15 -26 -31
-26 -35 -1 -5 -9 -24 -19 -43 -10 -19 -18 -39 -18 -43 0 -5 -2 -10 -4 -12 -2
-2 -4 33 -5 78 -2 111 -8 191 -16 203 -8 14 8 38 21 30 9 -6 112 83 112 97 0
4 9 26 20 50 11 23 21 60 23 83 2 23 6 45 9 50 7 13 2 283 -5 290 -4 4 -2 16
4 27 7 12 7 17 1 13 -6 -3 -10 8 -10 30 0 19 -2 38 -6 41 -6 6 -31 -16 -36
-32 -10 -34 -24 -54 -34 -48 -6 3 -8 3 -4 -2 4 -4 -1 -22 -11 -39 -45 -75 -81
-146 -74 -146 4 0 3 -4 -4 -8 -17 -11 -40 -108 -37 -154 4 -57 -11 -46 -26 20
-16 66 -15 62 -23 85 -22 57 -26 70 -29 99 -1 9 -6 14 -10 12 -7 -5 -12 11 -5
19 1 2 -4 11 -11 20 -8 9 -9 18 -3 21 5 3 11 1 13 -6 3 -8 14 -2 31 16 15 16
24 32 21 37 -3 5 -1 9 5 9 6 0 13 16 17 35 3 19 10 35 15 35 4 0 6 9 4 20 -2
11 0 20 4 20 5 0 9 10 9 23 0 12 1 27 3 32 1 6 -1 33 -6 60 -5 28 -8 56 -7 63
2 6 -2 12 -7 12 -5 0 -10 8 -9 18 0 9 -8 42 -17 72 -9 30 -20 69 -24 85 -4 17
-13 40 -19 51 -6 12 -8 24 -5 28 3 3 1 6 -6 6 -7 0 -10 4 -6 9 10 17 -15 23
-31 7 -8 -9 -13 -16 -9 -16 3 0 0 -10 -7 -22 -7 -13 -11 -27 -10 -31 1 -4 -3
-18 -10 -30 -7 -12 -13 -26 -15 -32 -13 -50 -17 -98 -17 -206 -1 -136 0 -136
-47 -49 -13 25 -27 47 -30 50 -3 3 -12 16 -19 29 -7 14 -16 30 -21 35 -5 6
-29 37 -53 68 -30 37 -42 60 -34 64 7 4 8 3 4 -4 -4 -7 -2 -12 5 -12 6 0 21
-10 33 -22 24 -25 45 -33 47 -18 1 5 3 15 4 20 1 6 3 17 4 26 1 9 6 12 14 8 9
-6 9 -4 -1 8 -7 9 -9 19 -4 22 10 6 9 83 -1 93 -4 3 -2 12 4 20 6 7 7 13 2 13
-5 0 -10 10 -10 23 -1 12 -3 29 -5 37 -6 28 -62 135 -80 154 -10 11 -18 23
-18 27 0 5 -11 19 -24 32 -14 14 -22 28 -19 31 4 3 2 6 -4 6 -6 0 -26 20 -45
45 -31 39 -37 43 -48 30 -7 -8 -9 -15 -4 -15 12 0 11 -123 -1 -132 -6 -5 -6
-8 2 -8 6 0 10 -8 8 -17 -1 -10 2 -26 7 -37 7 -13 7 -16 -1 -12 -8 5 -8 0 -1
-18 6 -18 6 -26 -1 -26 -6 0 -7 -5 -4 -10 4 -6 9 -23 11 -38 9 -48 28 -96 51
-129 17 -24 20 -34 11 -39 -7 -4 -10 -4 -7 0 6 7 -119 139 -178 187 -30 26
-31 28 -19 63 8 24 10 54 5 84 -4 26 -5 50 -2 55 2 4 1 7 -4 7 -4 0 -14 13
-21 28 -6 16 -21 38 -32 50 -11 12 -20 24 -20 27 0 13 -107 107 -175 154 -64
44 -119 65 -95 36 5 -6 10 -28 12 -48 1 -20 5 -37 8 -37 4 0 7 -6 7 -12 1 -22
43 -139 56 -155 7 -8 19 -22 27 -32 8 -9 22 -26 30 -36 14 -19 14 -19 -2 -6
-10 7 -18 10 -18 5 0 -5 -4 -4 -8 1 -4 6 -28 21 -54 34 -26 13 -45 28 -42 32
3 5 -1 6 -9 3 -8 -3 -21 2 -30 10 -9 9 -20 16 -26 16 -6 0 -11 15 -11 34 0 19
-5 38 -10 41 -6 4 -8 10 -5 15 3 4 -2 10 -10 14 -8 3 -15 12 -15 21 0 8 -3 15
-7 15 -5 0 -23 14 -40 31 -18 16 -33 26 -33 22 0 -4 -4 -3 -8 2 -10 15 -80 45
-102 45 -11 0 -20 5 -20 11 0 6 -6 9 -14 6 -8 -3 -17 -3 -21 1 -4 4 -11 8 -16
8 -5 1 -10 2 -11 3 -2 2 -14 4 -27 7 -14 2 -30 9 -38 15 -7 6 -24 8 -38 5
l-26 -7 28 -37 c15 -20 33 -42 38 -48 6 -6 19 -23 30 -38 26 -35 105 -118 105
-109 0 3 8 -3 18 -13 9 -10 24 -20 32 -22 8 -2 17 -8 18 -13 2 -5 15 -9 28 -9
13 0 24 -3 24 -7 0 -5 14 -9 31 -10 32 -2 169 -89 177 -113 3 -9 0 -10 -9 -4
-16 10 -169 12 -169 3 0 -4 -12 -9 -27 -12 -16 -3 -41 -8 -58 -12 -16 -5 -38
-8 -47 -9 -9 0 -14 -4 -12 -8 3 -4 -2 -8 -11 -8 -8 0 -32 -7 -53 -16 l-37 -16
25 -10 c26 -11 59 -17 122 -21 20 -1 39 -5 43 -9 4 -3 20 -2 36 2 17 5 27 5
24 0 -3 -5 3 -9 12 -9 54 0 151 -8 160 -14 5 -4 13 -3 17 0 4 4 30 8 58 9 28
2 66 5 85 9 27 5 38 1 58 -20 14 -14 28 -25 31 -25 3 0 22 -16 42 -35 l37 -36
-30 12 c-37 14 -96 23 -153 24 -23 0 -42 3 -42 7 0 8 -21 5 -37 -5 -8 -5 -13
-3 -13 3 0 7 -6 8 -17 2 -10 -4 -34 -8 -53 -7 -19 0 -38 -4 -42 -9 -7 -10 15
-36 31 -36 6 0 19 -4 29 -9 32 -17 97 -45 105 -46 4 0 11 -6 16 -13 5 -8 11
-13 15 -13 22 3 36 0 32 -7 -2 -4 7 -9 22 -10 15 -1 29 -7 30 -12 2 -6 8 -8
13 -4 5 3 9 1 9 -4 0 -5 6 -9 13 -10 6 0 36 -7 66 -16 30 -8 58 -13 62 -10 4
2 10 -2 12 -8 4 -10 6 -10 6 0 1 9 6 10 19 4 9 -5 29 -8 45 -7 15 1 27 -2 27
-7 0 -4 7 -8 15 -8 8 0 15 -5 15 -12 0 -6 7 -18 15 -27 25 -26 86 -111 80
-111 -3 0 -23 11 -45 25 -22 14 -46 25 -55 25 -8 0 -15 5 -15 11 0 5 -4 7 -10
4 -5 -3 -10 -1 -10 5 0 6 -4 9 -8 6 -5 -3 -32 4 -61 14 -28 11 -60 20 -71 20
-11 0 -20 4 -20 9 0 5 -13 8 -30 7 -16 -1 -32 3 -34 8 -2 6 -5 5 -5 -2 -1 -7
-5 -10 -11 -7 -25 15 -6 -13 26 -40 20 -17 44 -37 54 -45 10 -8 35 -28 55 -45
68 -55 85 -72 77 -80 -4 -5 -2 -5 4 -2 14 8 77 -37 66 -47 -4 -4 -2 -6 3 -5 9
3 64 -27 75 -42 3 -3 15 -9 28 -13 12 -4 20 -11 18 -15 -3 -4 5 -8 17 -8 12
-1 23 -7 25 -13 2 -5 8 -8 13 -4 5 3 9 0 9 -7 0 -6 8 -9 18 -7 18 5 45 -15 35
-26 -4 -3 -2 -6 3 -6 8 0 33 -52 39 -80 1 -3 9 -22 18 -44 27 -61 20 -65 -26
-16 -23 25 -58 57 -77 70 -19 13 -37 27 -40 30 -3 3 -27 16 -55 30 -27 14 -53
29 -56 33 -3 5 -10 9 -15 9 -5 0 -24 8 -42 16 -27 13 -34 14 -45 2 -9 -10 -9
-11 1 -6 6 4 12 2 12 -3 0 -6 8 -20 18 -30 41 -44 78 -93 93 -121 9 -16 19
-27 21 -24 3 3 9 -8 13 -23 3 -15 12 -31 18 -35 7 -4 12 -11 12 -15 1 -23 36
-66 111 -140 46 -46 87 -83 92 -83 4 0 18 -9 30 -20 12 -12 22 -17 23 -13 0 4
6 -12 13 -37 8 -30 8 -47 1 -52 -7 -5 -6 -8 1 -8 6 0 11 -6 12 -12 5 -86 14
-164 19 -171 3 -6 1 -7 -5 -3 -7 4 -12 15 -12 25 0 10 -3 21 -7 25 -5 4 -8 11
-9 14 -2 23 -44 92 -71 118 -18 17 -33 35 -33 40 0 5 -16 20 -34 34 -19 14
-32 28 -29 33 2 4 -1 7 -7 7 -15 0 -100 92 -94 102 3 4 -2 5 -10 2 -12 -4 -13
-11 -5 -32 5 -14 7 -32 5 -39 -3 -8 -1 -11 4 -8 10 6 14 -7 11 -34 -2 -7 1
-11 6 -8 4 3 9 -5 9 -16 2 -22 6 -40 17 -67 5 -14 30 -89 32 -100 1 -3 8 -18
15 -35 7 -16 14 -33 14 -36 2 -15 52 -114 59 -117 4 -2 7 -10 7 -18 0 -8 5
-14 12 -14 6 0 9 -3 5 -6 -6 -6 60 -95 76 -102 4 -2 7 -10 7 -17 0 -7 5 -15
11 -17 14 -5 18 -39 7 -60 -6 -13 -5 -18 4 -18 8 0 9 -3 3 -8 -5 -4 -11 -16
-12 -27 -2 -20 -12 -96 -16 -127 -5 -28 -17 -33 -18 -7 0 13 -3 33 -5 44 -3
11 -6 30 -7 42 -1 13 -5 23 -9 23 -3 0 -9 13 -13 30 -4 17 -11 30 -16 30 -6 0
-7 5 -4 10 3 6 2 10 -2 10 -10 0 -59 101 -55 113 1 5 -2 6 -7 3 -7 -5 -25 22
-21 32 0 1 -6 10 -15 18 -8 9 -12 20 -9 26 4 6 3 8 -3 5 -5 -4 -16 5 -23 18
-7 14 -17 25 -22 25 -7 0 -13 -40 -9 -63 1 -5 3 -52 6 -105 2 -53 7 -119 10
-147 3 -27 7 -75 9 -105 3 -30 5 -57 6 -60 1 -3 3 -9 5 -15 1 -5 3 -13 5 -17
1 -5 3 -11 5 -15 2 -8 6 -19 28 -78 7 -16 11 -33 9 -37 -1 -5 2 -8 7 -8 5 0
14 -13 21 -30 7 -16 17 -30 22 -30 6 0 8 -12 5 -28 -6 -33 -49 -136 -60 -140
-4 -2 -5 -8 -1 -13 3 -5 -2 -12 -10 -15 -9 -3 -14 -10 -11 -14 3 -5 1 -11 -5
-15 -5 -3 -10 -14 -10 -25 0 -10 -6 -20 -13 -23 -11 -4 -12 3 -6 36 4 22 5 51
3 64 -3 13 1 23 7 23 8 0 8 4 1 13 -5 6 -10 26 -10 42 0 17 -1 32 -2 35 -1 3
-3 19 -5 35 -1 17 -3 30 -4 30 -2 0 -4 8 -6 19 -3 16 -27 113 -31 126 -19 61
-53 93 -55 53 -1 -31 -15 -118 -19 -118 -2 0 -5 -15 -15 -65 -10 -52 -13 -65
-15 -65 -1 0 -4 -11 -6 -25 -1 -14 -5 -36 -8 -50 -2 -14 -5 -31 -5 -38 -1 -7
-4 -11 -8 -9 -5 3 -7 -19 -7 -49 1 -30 -3 -54 -8 -54 -5 0 -7 -4 -3 -9 3 -6 7
-34 10 -63 2 -29 6 -62 9 -73 3 -11 11 -39 18 -61 9 -35 9 -44 -3 -57 -8 -8
-34 -38 -58 -67 -74 -87 -87 -97 -71 -55 10 26 22 105 22 142 0 13 5 20 10 17
6 -4 7 0 1 12 -5 11 -9 58 -8 106 0 49 -3 88 -6 88 -3 0 -6 12 -5 27 1 14 -5
28 -12 31 -7 2 -12 0 -10 -5 1 -4 -2 -18 -6 -31 -5 -16 -13 -22 -24 -17 -13 5
-14 4 -5 -6 13 -13 -19 -79 -95 -197 -20 -31 -37 -59 -38 -62 -13 -41 -18 -50
-25 -50 -5 0 -5 -7 -2 -17 4 -10 2 -14 -5 -9 -7 4 -9 -2 -6 -19 2 -14 1 -25
-4 -25 -4 0 -8 -15 -8 -32 -2 -73 -4 -79 -16 -72 -10 6 -10 4 0 -8 27 -34 0
-138 -37 -138 -5 0 -12 -7 -15 -16 -3 -8 -10 -12 -16 -9 -5 3 -10 1 -10 -4 0
-6 -7 -11 -15 -11 -8 0 -15 -4 -15 -10 0 -5 -7 -10 -15 -10 -8 0 -15 -3 -15
-7 0 -5 -13 -16 -30 -25 l-29 -17 26 41 c24 40 55 105 51 110 -1 2 5 14 12 28
8 14 15 34 17 45 2 11 6 27 10 35 3 8 5 21 4 29 -2 8 2 10 11 5 11 -6 11 -5 0
8 -9 12 -10 18 -2 23 6 4 10 14 9 23 -1 10 0 19 1 22 5 15 9 50 5 50 -3 0 -23
-17 -44 -37 -21 -21 -48 -45 -60 -53 -12 -8 -21 -19 -21 -25 0 -5 -16 -21 -34
-35 -19 -14 -32 -28 -30 -32 2 -4 -5 -9 -16 -13 -11 -3 -20 -10 -20 -14 0 -5
-20 -29 -44 -54 -24 -25 -46 -53 -49 -61 -4 -9 -11 -16 -17 -16 -5 0 -10 -5
-10 -11 0 -6 -9 -24 -21 -40 -11 -16 -17 -29 -13 -29 3 0 1 -6 -5 -14 -7 -8
-14 -25 -17 -37 -3 -13 -6 -28 -7 -34 -2 -5 -6 -16 -10 -23 -5 -6 -5 -12 0
-13 10 0 -104 -37 -134 -43 -12 -2 -32 -10 -45 -17 -22 -12 -22 -11 -8 7 8 10
29 33 45 51 66 71 84 93 90 113 4 14 12 19 21 16 9 -3 12 -1 9 4 -7 12 16 70
28 70 5 0 5 5 2 10 -4 6 -2 17 5 25 17 21 -6 29 -40 13 -17 -7 -30 -16 -30
-20 0 -5 -8 -8 -18 -8 -10 0 -22 -4 -28 -8 -5 -5 -31 -17 -59 -26 -149 -52
-243 -122 -298 -218 -11 -21 -25 -38 -31 -38 -6 0 -4 -4 4 -10 29 -18 -3 -25
-115 -26 l-113 0 -24 55 c-12 30 -33 65 -46 78 -13 13 -19 23 -15 23 4 0 -4 8
-20 18 -15 10 -24 22 -20 27 5 4 3 5 -4 1 -6 -3 -14 -2 -18 4 -7 12 -107 60
-124 60 -7 0 -9 5 -5 12 4 6 3 8 -4 4 -11 -7 -83 19 -169 61 -29 13 -57 22
-64 18 -8 -6 -8 -9 1 -15 6 -4 13 -13 15 -21 9 -38 18 -59 26 -59 5 0 9 -6 9
-12 0 -7 10 -25 23 -40 12 -14 30 -37 41 -50 10 -12 41 -46 69 -75 43 -45 46
-60 7 -42 -3 1 -9 3 -15 4 -5 1 -17 5 -25 8 -26 10 -91 29 -106 31 -28 4 -38
27 -49 115 -2 13 -7 27 -12 30 -4 3 -15 19 -23 35 -8 15 -32 46 -52 67 -21 22
-38 41 -38 43 0 5 -260 266 -265 266 -2 0 -3 -13 -2 -30 1 -16 5 -30 8 -30 3
0 5 -11 4 -25 -2 -14 1 -27 6 -31 5 -3 9 -14 9 -26 0 -28 42 -151 55 -160 5
-4 6 -8 2 -8 -10 0 20 -56 48 -89 19 -23 19 -24 1 -17 -10 3 -58 32 -105 63
l-86 56 1 93 c1 52 -2 94 -5 94 -6 0 -10 17 -13 58 -1 6 -5 12 -10 12 -5 0 -7
4 -3 9 3 5 1 12 -5 16 -6 4 -8 10 -5 15 3 4 -2 13 -10 20 -7 6 -11 18 -8 26 3
8 1 14 -5 14 -5 0 -12 8 -15 18 -4 9 -18 35 -32 57 -13 22 -30 51 -37 65 -7
14 -22 41 -35 61 -12 20 -19 40 -16 43 4 3 2 6 -4 6 -9 0 -23 27 -27 54 0 5
-7 11 -15 14 -8 3 -11 0 -7 -6 3 -6 0 -13 -6 -15 -10 -4 -10 -6 0 -6 7 -1 10
-6 6 -12 -7 -12 -8 -310 0 -345 2 -11 11 -37 19 -57 15 -35 15 -36 -4 -24 -10
6 -19 15 -19 18 0 3 -19 27 -43 51 -78 85 -95 106 -88 115 29 34 58 237 39
276 -6 12 -5 17 4 17 8 0 9 3 3 8 -10 7 -17 46 -19 104 -1 14 -3 25 -7 23 -6
-5 -32 110 -32 143 0 12 -4 22 -9 22 -6 0 -8 15 -6 34 2 20 0 32 -6 29 -5 -4
-7 3 -4 15 4 12 3 22 0 22 -4 0 -8 11 -8 25 -1 15 2 22 9 18 6 -3 7 -1 3 6 -6
8 -12 9 -20 2 -7 -6 -16 -8 -20 -4 -4 4 -4 0 -1 -9 4 -9 2 -19 -4 -23 -6 -3
-11 -17 -11 -31 0 -14 -4 -23 -9 -20 -5 4 -8 -5 -6 -19 1 -14 -1 -25 -4 -25
-4 0 -7 -10 -8 -22 -1 -13 -4 -34 -8 -48 -4 -14 -7 -33 -7 -42 1 -10 -2 -18
-6 -18 -11 0 -16 -86 -12 -213 1 -10 5 -30 10 -43 5 -13 6 -24 2 -24 -10 0
-45 60 -35 60 4 0 4 4 -2 8 -16 12 -45 69 -38 76 3 3 1 6 -5 6 -7 0 -12 4 -12
10 0 5 -11 34 -25 64 -29 63 -31 76 -10 76 8 0 15 6 15 14 0 8 4 16 8 18 11 4
67 123 78 163 8 31 9 41 15 113 1 24 7 46 11 48 4 3 4 13 -2 23 -5 10 -7 21
-4 24 7 6 13 77 18 203 2 45 7 87 11 94 5 8 4 11 -3 6 -5 -3 -13 0 -15 6 -3 8
-6 6 -6 -5 -1 -10 -5 -16 -9 -13 -4 2 -20 -18 -35 -45 -16 -27 -32 -49 -38
-49 -5 0 -9 -9 -9 -19 0 -11 -5 -23 -10 -26 -6 -4 -8 -11 -5 -16 4 -5 2 -9 -3
-9 -8 0 -30 -40 -65 -120 -18 -40 -29 -97 -30 -157 0 -23 -4 -40 -9 -37 -5 3
-6 10 -3 15 4 5 1 9 -5 9 -6 0 -9 4 -6 8 3 4 1 26 -4 48 -8 34 -16 81 -25 149
-1 11 -4 25 -5 30 -8 32 38 103 55 87 5 -4 5 -2 2 4 -3 6 2 20 12 30 33 36
111 161 111 178 0 10 5 14 11 11 6 -4 9 -1 8 6 -1 8 1 23 5 34 4 11 12 31 16
45 4 14 11 34 16 45 4 11 9 29 11 39 2 11 8 25 14 33 6 7 9 20 5 28 -3 8 -2
15 2 15 4 0 8 10 9 22 1 11 6 24 10 27 5 3 8 13 8 21 -1 8 2 20 5 25 13 19 18
55 9 61 -5 3 -9 0 -9 -5 0 -6 -4 -11 -10 -11 -5 0 -38 -29 -74 -65 -35 -36
-70 -65 -76 -65 -6 0 -9 -4 -6 -8 3 -4 -10 -25 -29 -45 -19 -20 -31 -37 -27
-37 4 0 2 -4 -3 -8 -16 -10 -65 -119 -65 -142 0 -10 -5 -22 -10 -25 -6 -4 -7
-11 -4 -17 4 -7 2 -8 -5 -4 -6 4 -9 11 -7 15 6 9 19 149 19 199 0 17 3 32 7
32 5 0 6 9 3 19 -6 24 13 61 32 61 8 0 15 5 15 10 0 6 5 10 12 10 6 0 18 6 27
14 55 49 130 129 169 181 26 33 50 62 54 63 5 2 6 8 2 13 -3 5 0 9 5 9 6 0 11
5 11 11 0 6 6 17 13 24 30 34 35 43 30 49 -4 3 -1 6 5 6 7 0 12 6 12 14 0 8 7
17 16 20 9 4 14 9 11 12 -3 3 5 16 18 29 14 12 22 25 18 28 -3 4 2 9 11 13 25
10 19 32 -8 30 -13 0 -22 -4 -19 -9 5 -8 -56 -33 -70 -29 -5 1 -6 -2 -2 -7 3
-6 -6 -13 -20 -17 -14 -3 -25 -9 -25 -13 0 -8 -38 -28 -54 -29 -5 0 -13 -7
-18 -16 -5 -9 -13 -16 -18 -16 -17 0 -91 -69 -139 -130 l-20 -25 15 45 c9 25
20 51 26 57 6 7 8 13 5 13 -3 0 0 12 8 27 8 15 12 30 9 35 -3 4 1 11 10 14 8
3 12 12 9 20 -3 8 0 14 7 14 6 0 9 4 6 9 -4 5 8 13 26 16 17 4 47 16 65 26 18
10 33 16 33 13 0 -2 10 4 22 16 12 11 28 20 35 20 7 0 13 5 13 10 0 6 5 10 10
10 6 0 16 4 23 10 7 5 50 39 96 75 46 37 95 78 108 91 13 13 29 21 35 18 7 -4
8 -2 4 4 -4 7 8 21 28 34 40 26 52 46 36 62 -7 7 -10 7 -10 0 0 -6 -10 -10
-22 -9 -13 1 -27 0 -33 -4 -5 -3 -19 -7 -30 -9 -11 -2 -25 -5 -32 -6 -7 -1
-16 -5 -19 -9 -4 -4 -17 -7 -29 -7 -11 0 -26 -5 -31 -10 -6 -6 -21 -13 -35
-15 -13 -3 -25 -9 -27 -15 -2 -5 -12 -10 -23 -10 -10 0 -19 -4 -19 -10 0 -5
-7 -10 -15 -10 -8 0 -15 -5 -15 -12 0 -6 -3 -9 -6 -5 -3 3 -15 -3 -27 -13 -53
-50 -10 29 55 101 10 10 16 19 13 19 -10 0 30 37 53 49 17 9 22 9 22 -1 0 -9
3 -9 8 -2 4 6 18 11 32 11 51 2 100 8 100 14 0 3 6 6 13 7 45 6 66 12 132 42
22 10 45 19 50 20 6 1 18 8 27 17 10 8 24 13 32 10 9 -4 13 -1 10 6 -3 8 5 13
17 14 12 1 26 8 30 15 5 7 9 10 9 5 0 -4 19 2 42 14 40 20 41 22 22 36 -10 8
-27 12 -36 10 -9 -3 -19 0 -22 7 -2 6 -5 7 -5 1 -1 -8 -110 -12 -146 -5 -5 1
-12 1 -15 0 -7 -2 -31 -7 -73 -14 -21 -3 -47 -11 -57 -16 -10 -6 -22 -10 -26
-10 -7 0 49 53 92 85 14 11 31 25 37 31 8 8 23 7 53 -2 23 -7 45 -10 48 -7 3
4 6 1 6 -7 0 -10 3 -10 15 0 11 9 15 9 15 1 0 -8 5 -9 19 -2 10 6 21 7 25 4 8
-8 66 -10 66 -2 0 3 24 6 53 6 28 1 52 2 52 3 0 4 45 10 97 12 32 2 58 5 58 8
0 3 23 5 51 5 28 0 58 5 68 12 9 7 12 13 6 12 -12 -3 -45 10 -64 25 -13 10
-32 16 -59 18 -7 1 -10 8 -7 16 4 12 3 13 -9 3 -8 -7 -20 -10 -26 -6 -6 3 -23
9 -37 11 -15 3 -30 10 -34 16 -5 7 -9 7 -13 -1 -4 -6 -16 -7 -29 -2 -24 8
-135 6 -176 -4 l-26 -6 23 18 c13 10 36 28 52 41 15 12 31 22 35 22 4 0 13 8
20 17 8 11 30 18 61 20 27 2 56 6 64 10 8 3 17 7 20 8 23 8 50 22 75 39 50 35
204 196 188 196 -5 0 0 5 10 11 9 6 15 14 12 20 -4 5 -1 9 5 9 7 0 10 6 8 13
-5 13 -48 19 -48 7z m1888 -785 c-3 -3 -9 2 -12 12 -6 14 -5 15 5 6 7 -7 10
-15 7 -18z m-2194 -3213 c3 -5 -1 -9 -9 -9 -8 0 -15 4 -15 9 0 4 4 8 9 8 6 0
12 -4 15 -8z"/>
<path d="M2316 3292 c-4 -4 -11 -7 -14 -8 -4 0 -27 -6 -52 -14 -25 -7 -51 -13
-57 -13 -7 0 -13 -5 -13 -10 0 -5 -7 -7 -15 -3 -8 3 -15 2 -15 -2 0 -12 -52
-32 -64 -25 -6 3 -8 3 -4 -2 7 -7 -14 -35 -28 -35 -10 0 -53 -51 -70 -83 -14
-25 -20 -28 -47 -23 -137 28 -175 32 -239 30 -40 -1 -83 -5 -95 -8 -13 -3 -31
-8 -40 -10 -38 -9 -99 -39 -126 -62 -16 -13 -25 -24 -22 -24 4 0 2 -7 -5 -15
-13 -16 -4 -79 10 -70 5 3 10 0 12 -7 7 -20 81 -16 101 6 9 10 17 23 17 28 0
5 -8 8 -17 7 -10 -2 -31 0 -46 4 -24 7 -27 10 -17 22 10 11 10 15 1 15 -7 0
-9 5 -6 10 5 8 11 7 21 -1 12 -9 13 -9 9 3 -8 19 8 25 66 25 26 0 51 3 57 7 6
3 13 3 16 -2 3 -5 21 -8 40 -7 21 1 36 -3 36 -9 0 -6 5 -4 10 4 7 11 10 12 10
2 0 -9 7 -11 20 -7 14 5 20 2 20 -10 0 -10 -5 -14 -12 -10 -7 4 -4 -1 6 -9 17
-14 17 -16 4 -16 -9 0 -20 -4 -23 -10 -3 -5 0 -7 9 -4 13 5 15 -17 18 -160 3
-139 1 -165 -11 -161 -10 4 -11 2 -4 -7 13 -17 23 -58 14 -58 -4 0 -6 -13 -3
-30 3 -21 0 -30 -9 -31 -8 0 -5 -4 6 -9 11 -5 16 -9 10 -9 -6 -1 -9 -44 -7
-115 l3 -114 -30 -22 c-27 -18 -29 -23 -17 -36 17 -16 30 -19 21 -4 -4 6 10 9
34 8 26 -1 38 -5 34 -12 -3 -6 0 -5 8 1 16 16 33 17 23 1 -5 -7 -3 -8 7 -2 8
4 29 9 48 11 19 2 40 8 45 14 8 9 8 10 -1 5 -6 -3 -19 1 -27 10 -9 8 -16 13
-16 9 0 -3 -6 -1 -12 6 -17 15 -17 91 -1 85 7 -3 15 0 19 6 4 6 3 8 -2 5 -6
-3 -16 -1 -24 4 -13 8 -13 10 0 19 8 5 10 10 4 10 -11 0 -12 35 -1 46 4 4 2
13 -4 21 -9 10 -8 13 2 13 11 0 11 2 -1 10 -11 7 -12 12 -3 21 7 7 9 20 4 33
-9 26 -8 57 2 74 5 6 4 12 -1 12 -10 0 -9 100 1 117 4 6 3 14 -2 17 -11 7 -9
25 3 45 5 8 4 16 -1 20 -11 6 -10 72 2 90 3 6 2 11 -2 11 -5 0 -9 13 -9 30 -1
20 2 27 10 23 6 -4 5 1 -3 10 -9 11 -10 17 -2 18 6 1 17 2 24 3 6 1 20 -1 29
-6 10 -5 19 -3 22 5 3 6 4 0 2 -15 -1 -15 0 -29 5 -30 4 -2 9 -12 11 -23 1
-11 9 -26 16 -33 7 -8 10 -18 6 -23 -3 -5 0 -8 8 -7 7 2 12 -3 10 -9 -1 -7 4
-13 11 -13 14 0 63 -47 60 -58 -1 -4 1 -9 4 -12 4 -3 3 1 -1 8 -4 7 -1 12 8
12 9 0 16 -4 16 -10 0 -5 9 -10 19 -10 11 0 26 -6 33 -13 7 -8 18 -12 25 -10
6 2 14 -1 18 -6 3 -6 17 -11 29 -11 13 0 31 -10 40 -22 8 -13 13 -16 10 -7 -4
13 0 15 20 12 14 -3 26 -9 26 -14 0 -5 8 -8 18 -7 28 3 112 -14 107 -22 -2 -4
8 -6 23 -4 15 2 38 -4 51 -13 13 -8 20 -10 16 -3 -5 9 -1 9 16 -1 13 -7 25
-12 26 -11 7 4 63 -11 63 -17 0 -4 12 -8 26 -9 14 -1 31 -5 37 -9 7 -4 15 -8
20 -9 4 -1 10 -2 15 -3 4 -1 0 -6 -8 -12 -12 -8 -11 -9 6 -4 29 8 88 -40 81
-67 -3 -10 -1 -16 3 -13 5 3 12 0 16 -6 3 -6 0 -15 -7 -20 -10 -6 -11 -9 -1
-9 32 0 -3 -91 -51 -131 -30 -26 -117 -67 -158 -75 -44 -8 -161 -12 -173 -6
-5 3 -21 6 -35 8 -40 3 -133 41 -185 75 -68 45 -146 128 -186 197 -34 59 -36
61 -70 56 -19 -3 -37 -8 -40 -11 -8 -8 -7 -63 1 -63 4 0 6 -9 4 -20 -2 -11 1
-20 6 -20 6 0 7 -5 4 -11 -4 -5 -1 -24 5 -40 11 -25 10 -33 -6 -52 -10 -12
-12 -16 -4 -9 21 18 29 15 25 -13 -1 -14 1 -28 5 -30 7 -4 11 -20 27 -105 5
-31 5 -30 41 -36 34 -5 54 16 67 69 9 33 32 35 63 7 12 -12 22 -18 22 -15 0 3
22 -6 50 -20 27 -14 56 -25 65 -25 8 0 15 -4 15 -9 0 -6 8 -8 19 -6 10 2 31
-3 45 -10 15 -8 24 -11 22 -6 -3 4 1 8 9 8 8 0 12 -4 9 -9 -3 -4 40 -8 95 -8
65 0 101 4 101 11 0 5 5 7 10 4 6 -4 7 -11 4 -17 -4 -7 -2 -8 5 -4 6 4 8 12 5
18 -5 7 2 9 19 6 17 -3 24 -1 20 5 -4 6 0 8 10 4 9 -3 19 -2 22 3 3 4 23 11
45 15 22 4 40 11 40 16 0 5 6 9 13 9 7 0 36 16 64 35 57 38 71 42 79 21 3 -7
23 -22 44 -32 22 -11 40 -23 40 -28 0 -4 7 -6 15 -2 10 3 15 -1 15 -12 0 -15
2 -15 10 -2 5 8 10 10 10 3 0 -6 11 -10 25 -8 14 1 25 -1 25 -4 0 -3 19 -6 43
-5 23 0 50 -4 59 -8 10 -5 19 -4 23 2 5 8 11 8 19 1 7 -6 16 -7 22 -1 5 4 25
11 44 13 19 3 36 6 38 7 1 2 7 4 12 5 6 1 13 4 18 5 4 1 10 2 14 2 3 -1 12 5
18 13 7 8 16 15 21 15 13 0 93 59 102 76 5 8 14 11 20 8 7 -4 9 -4 5 1 -4 4 5
26 21 49 27 39 53 107 66 171 11 50 16 167 7 161 -4 -2 -8 7 -8 22 1 50 -43
149 -89 199 -50 56 -143 110 -207 120 -55 9 -162 9 -213 1 -60 -10 -105 -28
-162 -64 -40 -25 -53 -30 -54 -19 -2 19 -3 24 -17 58 -7 16 -12 34 -12 41 0 7
-9 38 -19 69 -11 32 -18 57 -16 57 2 0 -4 19 -14 42 -14 35 -23 42 -46 44 -16
0 -35 -5 -43 -12 -7 -8 -11 -14 -7 -14 3 0 -3 -9 -13 -20 -17 -18 -23 -19 -46
-9 -14 7 -26 15 -26 18 0 4 -11 8 -26 9 -14 1 -34 6 -44 12 -10 5 -35 12 -55
15 -21 2 -44 10 -53 17 -12 10 -14 10 -8 1 4 -7 2 -13 -3 -13 -6 0 -11 4 -11
9 0 13 -147 14 -155 1 -5 -8 -11 -8 -19 -1 -7 6 -16 7 -20 3z m71 -96 c-4 7 5
11 24 12 20 0 27 -3 22 -11 -4 -7 1 -6 11 2 15 13 19 13 27 0 6 -10 9 -11 9
-1 0 7 5 10 10 7 6 -4 8 -10 5 -15 -3 -5 -1 -12 5 -15 6 -4 9 -3 8 2 -5 15 7
16 60 4 47 -12 80 -31 53 -31 -6 0 -11 -5 -11 -12 0 -9 3 -9 12 0 16 16 41 15
35 -1 -3 -9 3 -13 17 -13 15 1 20 -4 18 -19 -2 -17 -1 -17 8 -5 9 13 14 11 35
-12 13 -16 28 -28 33 -28 5 0 20 -14 33 -32 13 -17 29 -37 36 -44 7 -6 14 -18
15 -25 7 -30 36 -52 63 -45 l26 7 -30 -45 c-17 -24 -31 -48 -31 -52 0 -4 -8
-13 -17 -21 -11 -8 -12 -11 -3 -7 12 6 13 5 4 -7 -6 -8 -14 -27 -18 -43 -6
-23 -9 -27 -17 -15 -5 7 -9 10 -9 5 0 -5 -6 -4 -12 2 -10 8 -107 41 -138 47
-5 1 -79 17 -95 20 -5 2 -30 8 -55 15 -25 7 -53 14 -62 16 -84 19 -171 45
-211 63 -51 23 -94 61 -106 94 -9 22 -6 26 28 42 24 10 46 31 59 53 18 34 19
39 5 60 -16 22 -14 24 22 22 3 -1 13 6 21 15 13 13 19 13 32 3 13 -11 14 -11
7 1 -6 11 -4 13 7 9 8 -4 21 -2 29 2 8 5 19 4 28 -3 9 -7 12 -8 8 -1z m-204
-82 c7 -7 -29 -44 -43 -44 -6 0 -3 11 6 25 16 25 26 30 37 19z m1096 -128 c10
-6 12 -5 7 3 -9 13 44 7 75 -10 11 -5 19 -7 19 -4 0 3 9 1 20 -5 11 -6 17 -16
14 -22 -4 -7 -2 -8 5 -4 15 10 43 -13 34 -28 -3 -6 -3 -8 2 -4 9 8 35 -15 35
-31 0 -6 3 -11 8 -11 4 0 13 -9 20 -21 11 -17 11 -20 0 -13 -7 4 -4 -3 6 -15
20 -22 25 -40 29 -98 1 -18 4 -33 7 -33 3 0 6 -16 7 -35 0 -20 -3 -32 -9 -29
-5 3 -4 -4 4 -15 11 -18 11 -23 -2 -31 -10 -6 -11 -10 -3 -10 7 0 11 -8 10
-17 -15 -75 -22 -103 -38 -140 -10 -24 -23 -43 -29 -43 -5 0 -9 -3 -8 -7 2 -5
-10 -23 -26 -40 -23 -26 -32 -30 -43 -22 -10 9 -12 9 -8 -3 17 -43 -159 -69
-244 -37 -71 26 -176 130 -155 152 12 12 14 91 3 131 -6 22 -20 54 -32 70 -23
33 -24 61 -3 141 1 6 6 25 10 43 5 19 12 29 18 26 7 -4 8 -2 4 5 -7 11 23 62
54 91 30 28 83 63 75 49 -5 -9 -1 -8 11 3 28 24 95 31 123 14z"/>
<path d="M2355 3171 c-3 -5 -2 -12 3 -15 5 -3 9 1 9 9 0 17 -3 19 -12 6z"/>
<path d="M2655 3060 c-3 -5 -1 -10 4 -10 6 0 11 5 11 10 0 6 -2 10 -4 10 -3 0
-8 -4 -11 -10z"/>
<path d="M2694 3036 c1 -8 5 -18 8 -22 4 -3 5 1 4 10 -1 8 -5 18 -8 22 -4 3
-5 -1 -4 -10z"/>
<path d="M2794 2822 c4 -3 14 -7 22 -8 9 -1 13 0 10 4 -4 3 -14 7 -22 8 -9 1
-13 0 -10 -4z"/>
<path d="M3396 2902 c-3 -4 4 -9 15 -9 23 -2 25 3 4 10 -8 4 -16 3 -19 -1z"/>
<path d="M3394 2862 c4 -3 14 -7 22 -8 9 -1 13 0 10 4 -4 3 -14 7 -22 8 -9 1
-13 0 -10 -4z"/>
<path d="M3426 2798 c3 -5 10 -6 15 -3 13 9 11 12 -6 12 -8 0 -12 -4 -9 -9z"/>
<path d="M3470 2800 c0 -5 5 -10 11 -10 5 0 7 5 4 10 -3 6 -8 10 -11 10 -2 0
-4 -4 -4 -10z"/>
<path d="M3466 2758 c3 -5 10 -6 15 -3 13 9 11 12 -6 12 -8 0 -12 -4 -9 -9z"/>
<path d="M3496 2658 c3 -4 11 -5 19 -1 21 7 19 12 -4 10 -11 0 -18 -5 -15 -9z"/>
<path d="M3520 2475 c-11 -13 -11 -18 0 -28 10 -9 11 -9 6 1 -4 7 -2 19 4 27
7 8 10 15 7 15 -2 0 -10 -7 -17 -15z"/>
<path d="M1665 3000 c-3 -6 1 -7 9 -4 18 7 21 14 7 14 -6 0 -13 -4 -16 -10z"/>
<path d="M1714 2969 c-3 -6 -2 -15 3 -20 5 -5 9 -1 9 11 0 23 -2 24 -12 9z"/>
<path d="M1730 2860 c0 -5 5 -10 11 -10 5 0 7 5 4 10 -3 6 -8 10 -11 10 -2 0
-4 -4 -4 -10z"/>
<path d="M1895 2860 c-3 -5 -1 -10 4 -10 6 0 11 5 11 10 0 6 -2 10 -4 10 -3 0
-8 -4 -11 -10z"/>
<path d="M1999 2813 c-13 -16 -12 -17 4 -4 16 13 21 21 13 21 -2 0 -10 -8 -17
-17z"/>
<path d="M1945 2800 c-3 -6 1 -7 9 -4 18 7 21 14 7 14 -6 0 -13 -4 -16 -10z"/>
<path d="M2013 2785 c0 -8 4 -12 9 -9 5 3 6 10 3 15 -9 13 -12 11 -12 -6z"/>
<path d="M1976 2775 c-9 -26 -7 -32 5 -12 6 10 9 21 6 23 -2 3 -7 -2 -11 -11z"/>
<path d="M2095 2740 c3 -5 8 -10 11 -10 2 0 4 5 4 10 0 6 -5 10 -11 10 -5 0
-7 -4 -4 -10z"/>
<path d="M1734 2716 c1 -8 5 -18 8 -22 4 -3 5 1 4 10 -1 8 -5 18 -8 22 -4 3
-5 -1 -4 -10z"/>
<path d="M1710 2659 c0 -5 5 -7 10 -4 6 3 10 8 10 11 0 2 -4 4 -10 4 -5 0 -10
-5 -10 -11z"/>
<path d="M2616 2578 c3 -5 10 -6 15 -3 13 9 11 12 -6 12 -8 0 -12 -4 -9 -9z"/>
<path d="M2713 2527 c0 -8 6 -14 14 -14 9 0 10 4 2 14 -6 7 -12 13 -14 13 -1
0 -2 -6 -2 -13z"/>
<path d="M2755 2531 c-3 -5 -2 -12 3 -15 5 -3 9 1 9 9 0 17 -3 19 -12 6z"/>
<path d="M1713 2455 c0 -8 4 -12 9 -9 5 3 6 10 3 15 -9 13 -12 11 -12 -6z"/>
<path d="M1915 2441 c-3 -5 -2 -12 3 -15 5 -3 9 1 9 9 0 17 -3 19 -12 6z"/>
<path d="M1735 2420 c-3 -5 -1 -10 4 -10 6 0 11 5 11 10 0 6 -2 10 -4 10 -3 0
-8 -4 -11 -10z"/>
<path d="M1696 2402 c-3 -5 1 -9 9 -9 8 0 12 4 9 9 -3 4 -7 8 -9 8 -2 0 -6 -4
-9 -8z"/>
<path d="M2770 2380 c0 -5 5 -10 11 -10 5 0 7 5 4 10 -3 6 -8 10 -11 10 -2 0
-4 -4 -4 -10z"/>
<path d="M1940 2326 c0 -2 8 -10 18 -17 15 -13 16 -12 3 4 -13 16 -21 21 -21
13z"/>
<path d="M1715 2259 c-3 -4 2 -6 10 -5 21 3 28 13 10 13 -9 0 -18 -4 -20 -8z"/>
<path d="M2897 2235 c-4 -8 -3 -16 1 -19 4 -3 9 4 9 15 2 23 -3 25 -10 4z"/>
<path d="M2135 2220 c3 -5 8 -10 11 -10 2 0 4 5 4 10 0 6 -5 10 -11 10 -5 0
-7 -4 -4 -10z"/>
<path d="M2230 2206 c0 -2 7 -7 16 -10 8 -3 12 -2 9 4 -6 10 -25 14 -25 6z"/>
<path d="M2996 2193 c-6 -14 -5 -15 5 -6 7 7 10 15 7 18 -3 3 -9 -2 -12 -12z"/>
<path d="M1776 2181 c-3 -5 2 -15 12 -22 15 -12 16 -12 5 2 -7 9 -10 19 -6 22
3 4 4 7 0 7 -3 0 -8 -4 -11 -9z"/>
<path d="M1930 2180 c0 -5 5 -10 11 -10 5 0 7 5 4 10 -3 6 -8 10 -11 10 -2 0
-4 -4 -4 -10z"/>
<path d="M2270 2140 c0 -5 5 -10 11 -10 5 0 7 5 4 10 -3 6 -8 10 -11 10 -2 0
-4 -4 -4 -10z"/>
<path d="M2116 2122 c-3 -5 1 -9 9 -9 8 0 12 4 9 9 -3 4 -7 8 -9 8 -2 0 -6 -4
-9 -8z"/>
</g>
</svg>
